<svg width="16" height="16" viewBox="0 0 16 16" fill="none" xmlns="http://www.w3.org/2000/svg">
<path d="M4.49998 9.9046C4.49992 9.04179 4.49987 8.25053 4.58658 7.60557C4.68211 6.895 4.90688 6.14334 5.52511 5.52511C6.14334 4.90687 6.895 4.68211 7.60557 4.58658C8.25053 4.49987 9.04179 4.49992 9.9046 4.49998L11.3954 4.49998C11.5927 4.49998 11.6914 4.49998 11.7507 4.43611C11.8101 4.37223 11.803 4.27611 11.7888 4.08387C11.7765 3.91695 11.7608 3.75926 11.7407 3.61027C11.6545 2.97057 11.4821 2.43898 11.1145 1.99107C10.9829 1.83073 10.8359 1.6837 10.6756 1.55211C10.2029 1.16424 9.63713 0.993677 8.94982 0.912434C8.28034 0.833299 7.4341 0.833305 6.36593 0.833313H6.30071C5.23254 0.833305 4.38629 0.833299 3.71681 0.912433C3.0295 0.993676 2.4637 1.16423 1.99107 1.55211C1.83073 1.6837 1.6837 1.83073 1.55211 1.99107C1.16424 2.4637 0.993677 3.0295 0.912434 3.71681C0.833299 4.38629 0.833305 5.23252 0.833313 6.3007V6.36592C0.833305 7.43409 0.833299 8.28034 0.912433 8.94981C0.993676 9.63713 1.16423 10.2029 1.55211 10.6756C1.6837 10.8359 1.83073 10.9829 1.99107 11.1145C2.43898 11.4821 2.97057 11.6545 3.61027 11.7407C3.75926 11.7608 3.91695 11.7765 4.08387 11.7888C4.27611 11.803 4.37223 11.8101 4.4361 11.7507C4.49998 11.6914 4.49998 11.5927 4.49998 11.3954V9.9046Z" fill="white"/>
<path fill-rule="evenodd" clip-rule="evenodd" d="M8.369 6.06066C8.41527 6.41355 8.16671 6.73714 7.81382 6.78341C7.38984 6.83901 7.17913 6.93211 7.04092 7.04581C6.91896 7.14614 6.83314 7.27701 6.77625 7.56022C6.70616 7.90916 6.36647 8.13522 6.01753 8.06513C5.66859 7.99504 5.44253 7.65535 5.51262 7.30641C5.61117 6.81576 5.81273 6.38723 6.22211 6.05046C6.62366 5.72013 7.10616 5.5763 7.64624 5.50548C7.99913 5.45921 8.32272 5.70777 8.369 6.06066ZM12.2975 6.06066C12.3438 5.70777 12.6674 5.45921 13.0203 5.50548C13.5604 5.5763 14.0429 5.72013 14.4444 6.05046C14.8538 6.38723 15.0554 6.81576 15.1539 7.30641C15.224 7.65535 14.9979 7.99504 14.649 8.06513C14.3001 8.13522 13.9604 7.90916 13.8903 7.56022C13.8334 7.27701 13.7476 7.14614 13.6256 7.04581C13.4874 6.93211 13.2767 6.83901 12.8527 6.78341C12.4998 6.73714 12.2513 6.41355 12.2975 6.06066ZM8.72218 6.14445C8.72218 5.78853 9.0107 5.50001 9.36661 5.50001H11.2999C11.6558 5.50001 11.9444 5.78853 11.9444 6.14445C11.9444 6.50036 11.6558 6.78888 11.2999 6.78888H9.36661C9.0107 6.78888 8.72218 6.50036 8.72218 6.14445ZM6.14444 8.72219C6.50035 8.72219 6.78887 9.01071 6.78887 9.36662V11.2999C6.78887 11.6558 6.50035 11.9444 6.14444 11.9444C5.78853 11.9444 5.5 11.6558 5.5 11.2999V9.36662C5.5 9.01071 5.78853 8.72219 6.14444 8.72219ZM14.5221 8.72219C14.878 8.72219 15.1665 9.01071 15.1665 9.36662V11.2999C15.1665 11.6558 14.878 11.9444 14.5221 11.9444C14.1662 11.9444 13.8777 11.6558 13.8777 11.2999V9.36662C13.8777 9.01071 14.1662 8.72219 14.5221 8.72219ZM6.01753 12.6014C6.36647 12.5313 6.70617 12.7574 6.77625 13.1063C6.83314 13.3895 6.91896 13.5204 7.04092 13.6207C7.17913 13.7344 7.38984 13.8275 7.81382 13.8831C8.16671 13.9294 8.41527 14.253 8.369 14.6059C8.32272 14.9588 7.99913 15.2073 7.64624 15.1611C7.10616 15.0902 6.62366 14.9464 6.2221 14.6161C5.81273 14.2793 5.61117 13.8508 5.51262 13.3601C5.44253 13.0112 5.66859 12.6715 6.01753 12.6014ZM14.649 12.6014C14.9979 12.6715 15.224 13.0112 15.1539 13.3601C15.0554 13.8508 14.8538 14.2793 14.4444 14.6161C14.0429 14.9464 13.5604 15.0902 13.0203 15.1611C12.6674 15.2073 12.3438 14.9588 12.2975 14.6059C12.2513 14.253 12.4998 13.9294 12.8527 13.8831C13.2767 13.8275 13.4874 13.7344 13.6256 13.6207C13.7476 13.5204 13.8334 13.3895 13.8903 13.1063C13.9604 12.7574 14.3001 12.5313 14.649 12.6014ZM8.72218 14.5221C8.72218 14.1662 9.0107 13.8777 9.36661 13.8777H11.2999C11.6558 13.8777 11.9444 14.1662 11.9444 14.5221C11.9444 14.878 11.6558 15.1665 11.2999 15.1665H9.36661C9.0107 15.1665 8.72218 14.878 8.72218 14.5221Z" fill="white"/>
</svg>
