<svg width="16" height="16" viewBox="0 0 16 16" fill="none" xmlns="http://www.w3.org/2000/svg">
<path d="M9.04312 10.1464C9.4232 10.3519 10.0194 10.6744 10.4273 11.0574C10.6812 11.2959 10.9439 11.6287 10.9922 12.0521C11.0443 12.5101 10.8323 12.9237 10.4514 13.2718C9.81213 13.8562 9.03479 14.3333 8.02655 14.3333H3.30675C2.2985 14.3333 1.52116 13.8562 0.881845 13.2718C0.500967 12.9237 0.288952 12.5101 0.341139 12.0521C0.389368 11.6287 0.652067 11.2959 0.906019 11.0574C1.31388 10.6744 1.91005 10.352 2.29013 10.1464C2.37476 10.1007 2.44867 10.0607 2.50741 10.0272C4.44224 8.92182 6.89105 8.92182 8.82588 10.0272C8.88461 10.0607 8.95851 10.1007 9.04312 10.1464Z" fill="white"/>
<path d="M2.39776 4.91888C2.39776 3.12271 3.86122 1.66663 5.66649 1.66663C7.47176 1.66663 8.93522 3.12271 8.93522 4.91888C8.93522 6.71505 7.47176 8.17113 5.66649 8.17113C3.86122 8.17113 2.39776 6.71505 2.39776 4.91888Z" fill="white"/>
<path d="M9.18509 7.31039C9.04799 7.49381 8.97943 7.58552 9.00543 7.6763C9.03143 7.76708 9.12275 7.80856 9.30539 7.89153C9.68547 8.06418 10.1141 8.16129 10.5677 8.16129C12.1321 8.16129 13.4003 7.0059 13.4003 5.58065C13.4003 4.15539 12.1321 3 10.5677 3C10.3971 3 10.23 3.01374 10.0677 3.04007C9.86675 3.07268 9.76626 3.08898 9.7132 3.16948C9.66013 3.24998 9.69768 3.35571 9.77279 3.56717C9.92105 3.98463 10.0012 4.43003 10.0012 4.89247C10.0012 5.78895 9.70011 6.62136 9.18509 7.31039Z" fill="white"/>
<path d="M12.5953 13.6667C13.6166 13.6667 14.4109 13.2692 15.0715 12.7731C15.4629 12.4791 15.7194 12.1004 15.6575 11.6537C15.6018 11.2525 15.3042 10.9539 15.0474 10.7558C14.6267 10.4311 14.0129 10.1584 13.6261 9.98665C13.5407 9.94872 13.4664 9.91569 13.4076 9.88812C12.654 9.53433 11.8249 9.31569 10.9779 9.23222C10.4317 9.17838 10.1586 9.15146 10.0962 9.30005C10.0338 9.44865 10.277 9.60784 10.7634 9.92623C10.9481 10.0471 11.1268 10.1767 11.2836 10.3116C11.6366 10.6151 12.1542 11.1614 12.2518 11.9457C12.297 12.3092 12.2447 12.6441 12.1269 12.9466C11.9866 13.3069 11.9165 13.487 11.9771 13.5724C11.981 13.5779 11.9834 13.5809 11.9877 13.5861C12.0558 13.6667 12.2356 13.6667 12.5953 13.6667Z" fill="white"/>
</svg>
